Coordinates
version=1
nRows=16
nColumns=36
inDegrees=yes

Units are S.I. units (second, meters, Newtons, ...)
If the header above contains a line with 'inDegrees', this indicates whether rotational values are in degrees (yes) or radians (no).

endheader
time	pelvis_tilt	pelvis_list	pelvis_rotation	pelvis_tx	pelvis_ty	pelvis_tz	hip_flexion_r	hip_adduction_r	hip_rotation_r	knee_angle_r	knee_angle_r_beta	ankle_angle_r	subtalar_angle_r	mtp_angle_r	hip_flexion_l	hip_adduction_l	hip_rotation_l	knee_angle_l	knee_angle_l_beta	ankle_angle_l	subtalar_angle_l	mtp_angle_l	lumbar_extension	lumbar_bending	lumbar_rotation	arm_flex_r	arm_add_r	arm_rot_r	elbow_flex_r	pro_sup_r	arm_flex_l	arm_add_l	arm_rot_l	elbow_flex_l	pro_sup_l
      1.33898300	    -24.01128381	      3.00267570	      1.08914589	     -0.82632450	      1.19579822	     -0.06841331	     38.27928083	     -0.04360096	      9.96708935	     57.58819000	      1.00510353	     30.01668761	    -25.48428018	     -7.49972409	     39.87620828	      0.10025053	     -2.59438011	     60.05166337	      1.04809925	     32.31704313	     -3.78699128	     -7.49972409	    -21.85533204	     -2.76810957	     -0.91830454	     51.37556214	    -10.89548591	      7.64329788	     71.79844373	     90.19117452	     57.62699174	    -13.53848549	     -4.67478962	     83.31664925	     78.77559915
      1.35593220	    -22.61403848	      3.09197465	      0.89425223	     -0.80005066	      1.21660715	     -0.07094596	     32.80833754	     -0.79634247	      9.89434522	     52.65265411	      0.91896217	     26.48810144	    -26.18126670	     -7.49975256	     34.70779380	      0.51060271	     -2.73256302	     55.83077151	      0.97443079	     29.86559008	     -3.23475863	     -7.49975256	    -18.99027864	     -2.62733470	     -1.15998402	     56.03399029	    -13.94818042	     13.96397538	     68.00075945	     89.86247901	     58.56071272	    -15.01216983	     -2.15481520	     85.81360387	     77.17076253
      1.37288140	    -21.15756803	      2.76936425	      0.28993295	     -0.75218750	      1.22785493	     -0.06879938	     26.15659443	     -0.93581372	      9.64582891	     46.64444225	      0.81409910	     22.80767109	    -26.16207668	     -7.49978023	     28.44090377	      0.39823953	     -2.72441570	     51.07170670	      0.89136944	     27.13898905	     -2.90474626	     -7.49978023	    -15.34970948	     -1.93113550	     -1.27045583	     57.51183499	    -15.16988167	     20.95012492	     66.75973850	     90.84080201	     53.85965761	    -18.46871172	     -3.91383637	     91.07153615	     76.44217016
      1.38983050	    -20.29487820	      2.25753954	      0.11693830	     -0.73291376	      1.24217353	     -0.07585051	     21.68598721	     -1.23091619	      8.46146883	     42.12845538	      0.73528026	     19.37050306	    -25.50816191	     -7.49981523	     24.24306935	      0.57361599	     -1.59757110	     47.48299131	      0.82873454	     24.26995043	     -3.61070711	     -7.49981523	    -11.34734148	     -0.85344562	     -0.15626485	     60.09823049	    -17.66958254	     25.96889423	     63.34083076	     89.01439136	     53.19725330	    -18.56642698	     -2.90584002	     91.33680600	     75.73144220
      1.40677970	    -19.38754909	      2.04880962	     -0.57779615	     -0.69278784	      1.27193441	     -0.07763575	     17.46881675	     -2.03581977	      7.09397483	     38.22009763	      0.66706654	     13.87700551	    -23.62859320	     -7.49982377	     19.07990481	      0.81715323	     -0.62779164	     42.23959427	      0.73721999	     19.48491504	     -4.76823554	     -7.49982377	     -7.85533187	     -0.07947644	      1.12381689	     59.50580937	    -20.38073189	     29.75824068	     62.69696659	     88.98460058	     51.67200670	    -19.91792258	     -1.32796867	     91.18548366	     75.96498946
      1.42372880	    -18.83094337	      1.93215383	     -0.86520178	     -0.64302949	      1.28704472	     -0.07253464	     13.17272666	     -2.61490918	      5.20606081	     34.47784755	      0.60175196	      7.71549981	    -21.60310662	     -7.49982910	     14.03431148	      0.48872975	      0.36754455	     36.12142300	      0.63043776	     13.62233722	     -4.56051677	     -7.49982910	     -4.08976676	      0.37300974	      1.31152016	     57.48471660	    -23.04651843	     32.43404023	     64.80889946	     88.89013464	     47.21153632	    -25.98081338	      0.80001150	     93.32046711	     76.53578326
      1.44067800	    -18.60164331	      1.97772982	     -0.21648142	     -0.62994170	      1.31339034	     -0.07330780	     10.36318212	     -3.11051164	      2.61949060	     31.00270200	      0.54109923	      0.75354535	    -20.04535851	     -7.49985530	     11.79927996	      0.23487331	      1.11978249	     31.61278245	      0.55174714	      6.20326372	     -6.13854878	     -7.49985530	     -1.54037995	      0.77708529	     -1.08844352	     60.57282942	    -20.99216391	     37.83940863	     59.44334318	     86.60047810	     44.26365312	    -32.21288694	      1.43560492	     94.48343120	     79.41478972
      1.45762710	    -17.66097531	      1.97595561	     -0.47072422	     -0.61143309	      1.34292942	     -0.07098528	      9.28616133	     -2.79472382	      1.90753513	     31.00566829	      0.54115100	     -7.43150682	    -20.68544226	     -7.49987489	     11.37110295	      0.29525161	      1.93571587	     31.90014701	      0.55676260	     -3.13141605	     -9.17016592	     -7.49987489	     -1.02196357	      0.92365935	     -1.31033100	     62.66552158	    -21.33633102	     42.76992704	     56.00013467	     84.90483578	     43.24326194	    -37.27663287	      3.78157980	     94.82655218	     80.33730448
      1.47457630	    -16.58768499	      1.83404703	     -0.12205719	     -0.57338610	      1.36508687	     -0.06359373	      8.37719899	     -2.09687731	      0.65052691	     30.56832885	      0.53351799	    -15.22079660	    -21.42019548	     -7.49987685	     10.71888459	     -0.54808438	      1.77841688	     31.13246026	      0.54336394	    -13.45355929	    -10.97264989	     -7.49987685	     -0.90817702	      0.71431595	     -0.80804327	     61.91531514	    -22.35326426	     42.78770585	     55.36146515	     84.67545570	     42.00025477	    -42.43484055	      4.89078388	     95.02435593	     80.61184345
      1.49152540	    -15.54032271	      1.57384281	      0.75329911	     -0.54314698	      1.39214242	     -0.07264010	      7.22155091	     -1.73034141	     -1.61518359	     28.52742114	      0.49789743	    -23.91496942	    -20.29117658	     -7.49989748	      9.91664214	     -0.53582873	      2.66725214	     30.09343286	      0.52522949	    -23.02591263	    -12.60252777	     -7.49989748	     -0.94660007	      1.20033010	     -3.26850654	     61.40309418	    -21.59386226	     45.35727024	     53.23281990	     82.45222428	     36.53225804	    -47.75234719	      0.85796788	     97.86317421	     80.80146634
      1.50847460	    -14.29181365	      0.91862734	      1.11830982	     -0.53509526	      1.40695322	     -0.06852866	      8.51261401	     -0.83582657	     -2.65823436	     30.26042171	      0.52814399	    -29.83089602	    -19.53512078	     -7.49990056	     12.34634401	     -0.84512739	      2.75343161	     33.78906027	      0.58973035	    -29.58856894	    -15.89283972	     -7.49990056	     -2.75343112	      1.43277385	     -3.42611970	     61.58507157	    -23.62460253	     45.25349903	     53.57841015	     82.26665098	     35.55672381	    -51.99963425	      1.06156690	     98.92826159	     80.89959672
      1.52542370	    -13.21747571	      1.55330181	      1.36332085	     -0.50449324	      1.42626507	     -0.06812500	      9.10589136	     -1.36281009	     -3.34719992	     30.37877718	      0.53020968	    -36.29215144	    -17.71777711	     -7.49990216	     14.66650991	      0.20866723	      3.09097755	     37.33474134	      0.65161416	    -35.26042585	    -16.41419992	     -7.49990216	     -4.44783259	      0.58789897	     -2.51316776	     61.16452977	    -26.73547869	     45.20125832	     53.72165552	     82.22823636	     32.96322217	    -56.73008763	      1.15516295	     98.90549571	     80.98258757
      1.54237290	    -12.70828000	      1.72957192	      0.63977924	     -0.47887340	      1.43644949	     -0.05950797	     12.02835478	     -1.52185052	     -4.60658233	     33.26765650	      0.58063014	    -40.81992677	    -18.75848779	     -7.49994296	     16.74006252	      1.03615667	      3.12184539	     39.29756542	      0.68587190	    -36.37308089	    -13.79266004	     -7.49994296	     -7.58170879	      1.13794645	     -9.47580473	     66.21886300	    -20.79723034	     52.27818434	     51.23982469	     82.64528363	     -8.43947301	    -62.41739152	    -41.23329116	    108.24735208	     79.36240666
      1.55932200	    -12.40701400	      1.36026700	      0.10557579	     -0.47753610	      1.44501297	     -0.05908560	     15.62769001	     -0.88426228	     -5.23053541	     35.13955763	      0.61330098	    -41.38183182	    -17.95453137	     -7.49996335	     21.29579857	      1.46313400	      3.31161263	     44.57421055	      0.77796674	    -35.02117255	    -11.43490615	     -7.49996335	    -10.34033982	      1.52584222	    -10.99443463	     69.39993610	    -20.83176216	     55.22460534	     50.43101705	     80.63961838	    -27.57079672	    -61.20763252	    -59.76239479	    108.76989533	     78.45074559
      1.57627120	    -11.84895500	      0.93862389	      0.29128671	     -0.46281278	      1.45340610	     -0.05976416	     18.63747844	     -0.44847712	     -5.97524879	     35.87777006	      0.62618522	    -42.29560610	    -21.51370506	     -7.49996503	     25.38296600	      1.17095436	      2.77940284	     47.55967297	      0.83007288	    -35.14218528	     -9.74567198	     -7.49996503	    -12.55026800	      1.43746701	     -8.93950022	     68.72674049	    -26.33649403	     55.62574932	     49.91519130	     80.44132149	    -31.26372103	    -62.93522335	    -61.47661899	    103.48132879	     78.02605068
      1.59322030	    -11.71166207	      0.70712032	      0.48624553	     -0.44323417	      1.45596269	     -0.06661096	     22.20851080	     -1.42080228	     -7.31918866	     37.97077139	      0.66271498	    -43.69299685	    -23.36975686	     -7.49997466	     27.68978513	      1.45559335	      2.23506280	     47.68965434	      0.83234149	    -34.34057979	     -8.82794046	     -7.49997466	    -14.91377981	      1.27608717	     -9.69735556	     68.80603234	    -29.46264039	     57.20765910	     50.09890810	     79.87699635	    -41.46983582	    -61.08008494	    -71.24699768	    102.07311914	     76.08383413
